<svg width="30" height="34" viewBox="0 0 30 34" fill="none" xmlns="http://www.w3.org/2000/svg">
<rect width="30" height="33.56" rx="4" fill="#93D291"/>
<path d="M9.15259 4.70325H4.04517V9.66125H2.54224V3.0509H9.15259V4.70325Z" fill="white"/>
<path d="M20.8472 4.70325H25.9556V9.66125H27.4575V3.0509H20.8472V4.70325Z" fill="white"/>
<path d="M9.15259 28.3482H4.04517V23.3902H2.54224V30.0005H9.15259V28.3482Z" fill="white"/>
<path d="M20.8472 28.3482H25.9556V23.3902H27.4575V30.0005H20.8472V28.3482Z" fill="white"/>
<ellipse cx="15.2541" cy="14.2376" rx="7.62712" ry="7.62727" fill="#E8E8E8"/>
<path fill-rule="evenodd" clip-rule="evenodd" d="M17.9098 12.5036C17.8238 11.9832 18.1061 11.8752 17.9098 11.3805C17.4735 10.4638 16.2846 10.5033 15.4121 10.4328C14.439 10.3955 13.454 10.524 12.5569 10.914C12.3426 11.0072 12.1365 11.1167 11.939 11.2412C11.7681 11.3488 11.7916 11.5535 11.8993 11.6651C11.1225 12.7651 11.5668 14.2417 10.947 15.3996C10.8325 15.6065 10.6811 15.7921 10.5816 16.0075C10.4303 16.3349 10.4206 16.8039 10.7637 17.0213C11.2468 17.2807 11.5165 16.7672 11.7539 17.5115C12.9396 20.1069 15.3234 20.2531 17.5865 18.9C17.7823 18.7911 17.9821 18.668 18.13 18.4968C18.4656 18.1192 18.4261 17.5881 18.4335 17.1164C18.4376 16.84 18.4383 16.5636 18.4356 16.2872C18.4251 15.1674 18.0539 13.6141 17.9098 12.5036Z" fill="white"/>
<path fill-rule="evenodd" clip-rule="evenodd" d="M13.0896 9.39077C14.456 8.77094 16.0058 8.53589 17.4963 8.69006C18.2319 8.76604 18.9579 8.92905 19.6488 9.19384L19.7094 9.21725C19.8799 9.28289 20.0638 9.34805 20.1934 9.48167C20.3443 9.63697 20.3866 9.8718 20.2788 10.0636C20.195 10.2127 20.0444 10.3196 19.8837 10.3767C19.9403 10.423 19.994 10.4747 20.0444 10.5324C20.1293 10.6291 20.1357 10.767 20.0444 10.8624C19.8684 11.0462 19.64 11.1792 19.394 11.2429C19.4217 11.3764 19.4067 11.5241 19.3475 11.6571C19.1774 12.0389 18.6983 12.0844 18.3297 12.0617L18.3186 12.061L18.2981 12.2957C18.2872 12.4206 18.2123 12.5176 18.0853 12.5367C18.0809 12.5374 18.0764 12.5378 18.072 12.5383C18.2729 13.2651 18.3943 14.0143 18.5064 14.7592C18.565 15.148 18.6174 15.5377 18.6675 15.9276L18.6842 16.0576C18.7377 16.4781 18.8045 16.9027 18.8277 17.3263C18.8484 17.7106 18.7751 18.0775 18.5383 18.3877C18.3257 18.6657 18.0359 18.8741 17.7242 19.0287C17.0199 19.3782 16.2787 19.6385 15.4998 19.7592L15.4478 19.7672C15.1472 19.8131 14.8374 19.8518 14.54 19.7686C14.2787 19.6955 14.0046 19.507 14.0636 19.2042C14.0835 19.102 14.2265 19.0975 14.2755 19.1766L14.2868 19.1947C14.3456 19.288 14.41 19.3747 14.5126 19.4228C14.6327 19.4794 14.7719 19.4952 14.9031 19.4968C15.2696 19.501 15.6513 19.4097 16.0042 19.3181C16.6632 19.147 17.3401 18.868 17.8799 18.4454C18.1096 18.2658 18.2941 18.0412 18.3591 17.7523C18.4396 17.396 18.3656 17.0065 18.3291 16.6485C18.2539 15.9097 18.1644 15.1723 18.07 14.4357L18.051 14.2884C17.9715 13.6726 17.888 13.0565 17.8483 12.4371C17.8318 12.4146 17.8206 12.389 17.8162 12.3609L17.81 12.3206C17.8046 12.2861 17.8037 12.2544 17.8075 12.2252C17.8077 12.1134 17.8108 12.0022 17.8173 11.8904C17.8184 11.8703 17.8193 11.8503 17.82 11.8304C17.7037 11.8561 17.5865 11.8768 17.4689 11.8944C16.6418 12.0189 15.8019 12.0501 14.9682 11.9882C14.5522 11.9572 14.1394 11.904 13.7279 11.8373C13.5184 11.8035 13.3097 11.7661 13.1016 11.7242C12.9512 11.6941 12.804 11.6533 12.656 11.615C12.5034 11.8371 12.421 12.1105 12.437 12.379C12.4551 12.6853 12.6591 12.9632 12.6019 13.2762C12.5481 13.5692 12.2971 13.66 12.0493 13.7325L11.944 13.763C11.8629 13.7867 11.804 13.8095 11.7893 13.9069C11.7642 14.0743 11.7951 14.2625 11.8016 14.4307C11.8094 14.6297 11.8196 14.8287 11.8243 15.0276C11.8268 15.1306 11.8308 15.2339 11.8306 15.3369C11.8303 15.41 11.8194 15.4599 11.7911 15.5071C11.813 15.5345 11.8325 15.5641 11.8499 15.5955C11.8555 15.6058 11.8417 15.6167 11.8335 15.6082C11.8114 15.5853 11.788 15.5646 11.7633 15.5461C11.7508 15.5615 11.7363 15.5771 11.7194 15.5938L11.718 15.592C11.665 15.6448 11.5808 15.6499 11.515 15.5938L11.4978 15.5788C11.4497 15.5366 11.4166 15.5015 11.4032 15.4318C11.4026 15.4282 11.4019 15.4247 11.4014 15.4211C11.2791 15.4169 11.1548 15.4458 11.0447 15.5067C10.8703 15.6031 10.7475 15.7406 10.6749 15.9104C10.7039 15.9442 10.7377 15.9745 10.7772 15.9999C10.7827 16.0037 10.7778 16.012 10.7718 16.0091C10.7315 15.9901 10.6954 15.9667 10.6631 15.9393C10.637 16.0062 10.6188 16.0779 10.6076 16.1539C10.5684 16.4221 10.6384 16.7499 10.8808 16.9027C10.9857 16.9689 11.1056 17.0048 11.2299 17.0052C11.2905 17.0054 11.3428 16.9952 11.4017 16.9807C11.4415 16.9709 11.4812 16.9566 11.5229 16.9566C11.5585 16.9566 11.5915 16.9655 11.622 16.9834L11.6136 16.9841C11.593 16.986 11.5969 16.9869 11.6256 16.9869C11.7147 16.9907 11.7657 17.0812 11.7247 17.1598L11.7193 17.172C11.7182 17.1744 11.7172 17.1765 11.7165 17.1781L11.7133 17.1989C11.7129 17.2009 11.7126 17.203 11.7123 17.2051L11.711 17.2093C11.7108 17.21 11.7105 17.2106 11.7102 17.2113L11.8439 17.4151C12.0078 17.6645 12.1753 17.9129 12.3659 18.1406C12.4996 18.3003 12.6413 18.457 12.791 18.602C12.9256 18.7324 13.0869 18.7952 13.2393 18.8977C13.3206 18.952 13.3445 19.0659 13.2705 19.1392C13.0535 19.3546 12.7462 19.1835 12.5682 19.0084C12.3998 18.8424 12.2543 18.6428 12.1289 18.4429C11.9063 18.0876 11.7292 17.7097 11.6517 17.2995C11.6193 17.3292 11.5781 17.3477 11.5365 17.3621C11.4529 17.3911 11.3609 17.4031 11.2727 17.4062C11.1036 17.4118 10.9342 17.3708 10.7821 17.2982C10.1629 17.003 10.072 16.1189 10.4505 15.5976C10.3995 15.4495 10.371 15.2889 10.34 15.152L10.3259 15.0907C10.1694 14.4069 10.0643 13.6869 10.3418 13.0169C10.3775 12.9304 10.4176 12.8462 10.465 12.7655C10.5031 12.7007 10.5686 12.6316 10.5867 12.5579C10.6268 12.3959 10.3793 12.2257 10.3071 12.0971C10.2222 11.9463 10.2102 11.7683 10.3258 11.6303C10.3405 11.613 10.3565 11.5969 10.3739 11.5829C10.2643 11.3842 10.2592 11.1342 10.4035 10.9381C10.4984 10.8089 10.6433 10.7184 10.8015 10.691C10.8981 10.6743 11.0144 10.6806 11.1207 10.7104C11.7026 10.1701 12.3666 9.71873 13.0896 9.39077ZM10.8549 16.1512C11.0102 16.0142 11.1818 15.9424 11.3934 15.9605C11.6062 15.9787 11.8624 16.0668 11.9874 16.2492C12.0861 16.3934 11.8849 16.6048 11.7401 16.4966C11.6082 16.3979 11.5202 16.2865 11.3564 16.2334C11.2094 16.186 11.0274 16.1554 10.8734 16.1826C10.8565 16.1855 10.8396 16.1646 10.8549 16.1512Z" fill="black"/>
</svg>
