<svg width="204" height="41" viewBox="0 0 204 41" fill="none" xmlns="http://www.w3.org/2000/svg">
<path d="M10.2676 20.5C15.9383 20.5 20.5352 15.9107 20.5352 10.25C20.5352 4.5891 15.9383 0 10.2676 0C4.597 0 0 4.5891 0 10.25C0 15.9107 4.597 20.5 10.2676 20.5Z" fill="#C2CDD4"/>
<path d="M0 20.5H20.5352L0 41V20.5Z" fill="#C2CDD4"/>
<path d="M54.2129 28.8453H67.9798V25.1028H58.7599V7.37646H54.2129V28.8453Z" fill="#C2CDD4"/>
<path d="M77.3078 29.1604C82.2007 29.1604 85.2464 25.8162 85.2464 20.8575C85.2464 15.8677 82.2007 12.5342 77.3078 12.5342C72.4141 12.5342 69.3691 15.8677 69.3691 20.8575C69.3691 25.8162 72.4141 29.1604 77.3078 29.1604ZM77.3283 25.7011C75.0707 25.7011 73.9161 23.636 73.9161 20.8264C73.9161 18.0169 75.0707 15.9412 77.3283 15.9412C79.5441 15.9412 80.6994 18.0169 80.6994 20.8264C80.6994 23.636 79.5441 25.7011 77.3283 25.7011Z" fill="#C2CDD4"/>
<path d="M94.5343 35.2194C99.1442 35.2194 102.421 33.1225 102.421 29.0029V12.7439H97.979V15.4482H97.8106C97.2121 14.1381 95.899 12.5342 93.2006 12.5342C89.6618 12.5342 86.6692 15.2808 86.6692 20.7636C86.6692 26.1199 89.5776 28.6151 93.2113 28.6151C95.7837 28.6151 97.2227 27.3255 97.8106 25.9942H97.9995V28.94C97.9995 31.152 96.5817 32.0115 94.639 32.0115C92.6651 32.0115 91.6675 31.152 91.2997 30.1767L87.163 30.7325C87.6986 33.2694 90.1868 35.2194 94.5343 35.2194ZM94.6291 25.2604C92.4345 25.2604 91.2367 23.5201 91.2367 20.7424C91.2367 18.0063 92.4132 16.0881 94.6291 16.0881C96.8024 16.0881 98.0207 17.9223 98.0207 20.7424C98.0207 23.583 96.7812 25.2604 94.6291 25.2604Z" fill="#C2CDD4"/>
<path d="M112.381 29.1604C117.275 29.1604 120.32 25.8162 120.32 20.8575C120.32 15.8677 117.275 12.5342 112.381 12.5342C107.488 12.5342 104.443 15.8677 104.443 20.8575C104.443 25.8162 107.488 29.1604 112.381 29.1604ZM112.402 25.7011C110.144 25.7011 108.99 23.636 108.99 20.8264C108.99 18.0169 110.144 15.9412 112.402 15.9412C114.618 15.9412 115.773 18.0169 115.773 20.8264C115.773 23.636 114.618 25.7011 112.402 25.7011Z" fill="#C2CDD4"/>
<path d="M122.341 28.8454H126.814V12.744H122.341V28.8454ZM124.589 10.6683C125.922 10.6683 127.014 9.65145 127.014 8.40398C127.014 7.16696 125.922 6.15015 124.589 6.15015C123.265 6.15015 122.173 7.16696 122.173 8.40398C122.173 9.65145 123.265 10.6683 124.589 10.6683Z" fill="#C2CDD4"/>
<path d="M129.511 34.8839H133.985V26.2668H134.121C134.74 27.6087 136.095 29.1074 138.7 29.1074C142.375 29.1074 145.242 26.2039 145.242 20.8158C145.242 15.2808 142.249 12.5342 138.71 12.5342C136.011 12.5342 134.72 14.1381 134.121 15.4482H133.922V12.7439H129.511V34.8839ZM133.89 20.7947C133.89 17.9223 135.108 16.0881 137.282 16.0881C139.498 16.0881 140.673 18.0063 140.673 20.7947C140.673 23.6042 139.476 25.5542 137.282 25.5542C135.129 25.5542 133.89 23.667 133.89 20.7947Z" fill="#C2CDD4"/>
<path d="M160.757 17.3354C160.358 14.3691 157.964 12.5342 153.889 12.5342C149.762 12.5342 147.043 14.4418 147.053 17.5451C147.043 19.9563 148.565 21.5179 151.716 22.1472L154.509 22.703C155.916 22.9855 156.557 23.4996 156.578 24.3069C156.557 25.2604 155.517 25.9419 153.953 25.9419C152.356 25.9419 151.295 25.2604 151.022 23.9502L146.623 24.1805C147.043 27.2626 149.668 29.1604 153.941 29.1604C158.121 29.1604 161.114 27.0324 161.124 23.8556C161.114 21.5285 159.591 20.1343 156.462 19.4951L153.542 18.9075C152.041 18.5826 151.484 18.0692 151.495 17.2937C151.484 16.3289 152.577 15.7004 153.963 15.7004C155.517 15.7004 156.441 16.5493 156.662 17.5868L160.757 17.3354Z" fill="#C2CDD4"/>
<path d="M173.398 21.9896C173.408 24.1494 171.928 25.2815 170.321 25.2815C168.63 25.2815 167.538 24.0971 167.528 22.1994V12.7439H163.054V22.996C163.065 26.7597 165.27 29.0551 168.515 29.0551C170.941 29.0551 172.683 27.8078 173.408 25.9207H173.577V28.8453H177.871V12.7439H173.398V21.9896Z" fill="#C2CDD4"/>
<path d="M180.562 28.8454H185.035V19.1801C185.035 17.3982 186.169 16.2138 187.661 16.2138C189.131 16.2138 190.118 17.2202 190.118 18.803V28.8454H194.455V19.0127C194.455 17.346 195.41 16.2138 197.038 16.2138C198.466 16.2138 199.537 17.1051 199.537 18.8976V28.8454H204V18.0169C204 14.5258 201.921 12.5342 198.917 12.5342C196.555 12.5342 194.717 13.7398 194.056 15.5845H193.887C193.373 13.7186 191.724 12.5342 189.509 12.5342C187.335 12.5342 185.686 13.6875 185.014 15.5845H184.825V12.7439H180.562V28.8454Z" fill="#C2CDD4"/>
<path d="M30.8025 20.5C36.4735 20.5 41.07 15.9107 41.07 10.25C41.07 4.5891 36.4735 0 30.8025 0C25.1318 0 20.5349 4.5891 20.5349 10.25C20.5349 15.9107 25.1318 20.5 30.8025 20.5Z" fill="#C2CDD4"/>
<path d="M41.07 20.5H20.5349V41H41.07V20.5Z" fill="#C2CDD4"/>
<path d="M54.2129 28.8453H67.9798V25.1028H58.7599V7.37646H54.2129V28.8453Z" fill="#C2CDD4"/>
<path d="M77.3078 29.1604C82.2007 29.1604 85.2464 25.8162 85.2464 20.8575C85.2464 15.8677 82.2007 12.5342 77.3078 12.5342C72.4141 12.5342 69.3691 15.8677 69.3691 20.8575C69.3691 25.8162 72.4141 29.1604 77.3078 29.1604ZM77.3283 25.7011C75.0707 25.7011 73.9161 23.636 73.9161 20.8264C73.9161 18.0169 75.0707 15.9412 77.3283 15.9412C79.5441 15.9412 80.6994 18.0169 80.6994 20.8264C80.6994 23.636 79.5441 25.7011 77.3283 25.7011Z" fill="#C2CDD4"/>
<path d="M94.5343 35.2194C99.1442 35.2194 102.421 33.1225 102.421 29.0029V12.7439H97.979V15.4482H97.8106C97.2121 14.1381 95.899 12.5342 93.2006 12.5342C89.6618 12.5342 86.6692 15.2808 86.6692 20.7636C86.6692 26.1199 89.5776 28.6151 93.2113 28.6151C95.7837 28.6151 97.2227 27.3255 97.8106 25.9942H97.9995V28.94C97.9995 31.152 96.5817 32.0115 94.639 32.0115C92.6651 32.0115 91.6675 31.152 91.2997 30.1767L87.163 30.7325C87.6986 33.2694 90.1868 35.2194 94.5343 35.2194ZM94.6291 25.2604C92.4345 25.2604 91.2367 23.5201 91.2367 20.7424C91.2367 18.0063 92.4132 16.0881 94.6291 16.0881C96.8024 16.0881 98.0207 17.9223 98.0207 20.7424C98.0207 23.583 96.7812 25.2604 94.6291 25.2604Z" fill="#C2CDD4"/>
<path d="M112.381 29.1604C117.275 29.1604 120.32 25.8162 120.32 20.8575C120.32 15.8677 117.275 12.5342 112.381 12.5342C107.488 12.5342 104.443 15.8677 104.443 20.8575C104.443 25.8162 107.488 29.1604 112.381 29.1604ZM112.402 25.7011C110.144 25.7011 108.99 23.636 108.99 20.8264C108.99 18.0169 110.144 15.9412 112.402 15.9412C114.618 15.9412 115.773 18.0169 115.773 20.8264C115.773 23.636 114.618 25.7011 112.402 25.7011Z" fill="#C2CDD4"/>
<path d="M122.341 28.8454H126.814V12.744H122.341V28.8454ZM124.589 10.6683C125.922 10.6683 127.014 9.65145 127.014 8.40398C127.014 7.16696 125.922 6.15015 124.589 6.15015C123.265 6.15015 122.173 7.16696 122.173 8.40398C122.173 9.65145 123.265 10.6683 124.589 10.6683Z" fill="#C2CDD4"/>
<path d="M129.511 34.8839H133.985V26.2668H134.121C134.74 27.6087 136.095 29.1074 138.7 29.1074C142.375 29.1074 145.242 26.2039 145.242 20.8158C145.242 15.2808 142.249 12.5342 138.71 12.5342C136.011 12.5342 134.72 14.1381 134.121 15.4482H133.922V12.7439H129.511V34.8839ZM133.89 20.7947C133.89 17.9223 135.108 16.0881 137.282 16.0881C139.498 16.0881 140.673 18.0063 140.673 20.7947C140.673 23.6042 139.476 25.5542 137.282 25.5542C135.129 25.5542 133.89 23.667 133.89 20.7947Z" fill="#C2CDD4"/>
<path d="M160.757 17.3354C160.358 14.3691 157.964 12.5342 153.889 12.5342C149.762 12.5342 147.043 14.4418 147.053 17.5451C147.043 19.9563 148.565 21.5179 151.716 22.1472L154.509 22.703C155.916 22.9855 156.557 23.4996 156.578 24.3069C156.557 25.2604 155.517 25.9419 153.953 25.9419C152.356 25.9419 151.295 25.2604 151.022 23.9502L146.623 24.1805C147.043 27.2626 149.668 29.1604 153.941 29.1604C158.121 29.1604 161.114 27.0324 161.124 23.8556C161.114 21.5285 159.591 20.1343 156.462 19.4951L153.542 18.9075C152.041 18.5826 151.484 18.0692 151.495 17.2937C151.484 16.3289 152.577 15.7004 153.963 15.7004C155.517 15.7004 156.441 16.5493 156.662 17.5868L160.757 17.3354Z" fill="#C2CDD4"/>
<path d="M173.398 21.9896C173.408 24.1494 171.928 25.2815 170.321 25.2815C168.63 25.2815 167.538 24.0971 167.528 22.1994V12.7439H163.054V22.996C163.065 26.7597 165.27 29.0551 168.515 29.0551C170.941 29.0551 172.683 27.8078 173.408 25.9207H173.577V28.8453H177.871V12.7439H173.398V21.9896Z" fill="#C2CDD4"/>
<path d="M180.562 28.8454H185.035V19.1801C185.035 17.3982 186.169 16.2138 187.661 16.2138C189.131 16.2138 190.118 17.2202 190.118 18.803V28.8454H194.455V19.0127C194.455 17.346 195.41 16.2138 197.038 16.2138C198.466 16.2138 199.537 17.1051 199.537 18.8976V28.8454H204V18.0169C204 14.5258 201.921 12.5342 198.917 12.5342C196.555 12.5342 194.717 13.7398 194.056 15.5845H193.887C193.373 13.7186 191.724 12.5342 189.509 12.5342C187.335 12.5342 185.686 13.6875 185.014 15.5845H184.825V12.7439H180.562V28.8454Z" fill="#C2CDD4"/>
</svg>
