<svg width="190" height="38" viewBox="0 0 190 38" fill="none" xmlns="http://www.w3.org/2000/svg">
<path d="M28.4884 16.3839C27.9578 16.9177 27.5515 17.562 27.2984 18.2707C27.0453 18.9795 26.9516 19.7354 27.024 20.4845L26.9988 20.4593C27.0733 21.3412 26.9543 22.2285 26.6503 23.0597C26.3464 23.8907 25.8648 24.6455 25.2391 25.2713C24.6133 25.8969 23.8586 26.3787 23.0274 26.6825C22.1964 26.9864 21.3089 27.1054 20.4272 27.0309L20.4524 27.0561C19.3976 26.958 18.3382 27.1874 17.4186 27.7134C16.4991 28.2394 15.7641 29.0361 15.314 29.9951C14.8639 30.9541 14.7204 32.0285 14.9032 33.0721C15.0862 34.1155 15.5864 35.0771 16.3358 35.8259C17.0852 36.5746 18.0473 37.074 19.0909 37.2558C20.1346 37.4378 21.2088 37.2933 22.1674 36.8424C23.126 36.3913 23.922 35.6558 24.4471 34.7357C24.9723 33.8156 25.2009 32.7561 25.1018 31.7013L25.1284 31.7265C25.0539 30.8448 25.1728 29.9573 25.4767 29.1262C25.7806 28.2951 26.2624 27.5404 26.888 26.9146C27.5138 26.2889 28.2686 25.8072 29.0996 25.5034C29.9308 25.1994 30.8181 25.0804 31.7 25.1549L31.6734 25.1297C32.5349 25.2071 33.4022 25.0659 34.1948 24.719C34.9872 24.372 35.6793 23.8307 36.2069 23.1451C36.7344 22.4595 37.0805 21.6517 37.2126 20.7969C37.3449 19.9419 37.2592 19.0674 36.9636 18.2543C36.6679 17.4413 36.1717 16.7161 35.5211 16.1459C34.8706 15.5757 34.0866 15.1789 33.2418 14.9925C32.397 14.806 31.5188 14.8357 30.6886 15.0788C29.8584 15.3222 29.1031 15.771 28.4926 16.3839H28.4884Z" fill="#8E3F5A"/>
<path d="M18.1607 23.7551L18.1341 23.7299C18.8835 23.8054 19.6403 23.7134 20.35 23.4605C21.0595 23.2077 21.7041 22.8004 22.2369 22.268C22.7696 21.7356 23.1776 21.0913 23.4308 20.3819C23.6842 19.6726 23.7768 18.9159 23.7019 18.1663L23.7285 18.1915C23.654 17.3096 23.773 16.4223 24.0768 15.5911C24.3807 14.7601 24.8625 14.0054 25.4881 13.3796C26.1139 12.7539 26.8687 12.2722 27.6997 11.9684C28.5309 11.6644 29.4182 11.5455 30.3001 11.6199L30.2735 11.5947C31.3284 11.6938 32.388 11.465 33.3081 10.9396C34.2283 10.4143 34.9639 9.61785 35.4147 8.65903C35.8655 7.70023 36.0096 6.62569 35.8273 5.58197C35.645 4.53826 35.1452 3.57621 34.3959 2.82701C33.6468 2.07783 32.6847 1.57797 31.641 1.39566C30.5973 1.21334 29.5228 1.35742 28.5639 1.80824C27.6051 2.25906 26.8088 2.99469 26.2833 3.91478C25.7579 4.83486 25.5292 5.89462 25.6283 6.94949L25.6031 6.92289C25.6777 7.80474 25.559 8.69225 25.2552 9.52346C24.9514 10.3547 24.4696 11.1095 23.844 11.7354C23.2182 12.3611 22.4633 12.8428 21.6321 13.1466C20.8008 13.4504 19.9133 13.5691 19.0315 13.4945L19.0567 13.5211C18.3073 13.4456 17.5503 13.5376 16.8408 13.7905C16.1312 14.0432 15.4867 14.4506 14.9538 14.983C14.421 15.5154 14.0132 16.1597 13.7598 16.8691C13.5065 17.5784 13.414 18.3351 13.4889 19.0847L13.4637 19.0595C13.5379 19.9412 13.4187 20.8285 13.1148 21.6596C12.8107 22.4905 12.3291 23.2452 11.7035 23.8709C11.0777 24.4965 10.3231 24.9781 9.4921 25.2822C8.66112 25.5862 7.77381 25.7053 6.89208 25.6311L6.91728 25.6563C5.8624 25.5572 4.80265 25.7859 3.88255 26.3114C2.96247 26.8368 2.22684 27.6331 1.77603 28.592C1.3252 29.5508 1.18111 30.6253 1.36343 31.669C1.54576 32.7127 2.04561 33.6748 2.79479 34.4239C3.54399 35.1732 4.50604 35.673 5.54976 35.8553C6.59347 36.0376 7.66801 35.8935 8.62683 35.4427C9.58563 34.9919 10.3821 34.2564 10.9074 33.3363C11.4328 32.4161 11.6616 31.3564 11.5625 30.3015L11.5891 30.3267C11.5146 29.4448 11.6336 28.5575 11.9375 27.7263C12.2413 26.8953 12.7231 26.1406 13.3487 25.5148C13.9745 24.8891 14.7293 24.4074 15.5603 24.1035C16.3915 23.7996 17.2788 23.6806 18.1607 23.7551Z" fill="#494582"/>
<path d="M8.77786 20.9454C9.30849 20.4117 9.71474 19.7674 9.96764 19.0586C10.2205 18.3498 10.3138 17.5938 10.2409 16.8448L10.2674 16.87C10.193 15.988 10.3119 15.1002 10.616 14.2689C10.9201 13.4376 11.402 12.6827 12.0281 12.0569C12.6542 11.4311 13.4092 10.9495 14.2407 10.6458C15.0721 10.3421 15.9599 10.2235 16.8419 10.2984L16.8153 10.2732C17.8697 10.372 18.9291 10.1431 19.8488 9.61773C20.7684 9.09241 21.5036 8.29619 21.9542 7.33768C22.4048 6.37916 22.5487 5.30501 22.3664 4.26168C22.1841 3.21836 21.6843 2.25667 20.9355 1.50776C20.1866 0.758843 19.2248 0.259155 18.1815 0.0768467C17.1382 -0.105475 16.064 0.0384727 15.1056 0.489021C14.147 0.939569 13.3508 1.67481 12.8255 2.59447C12.3001 3.51413 12.0712 4.57345 12.1701 5.62796L12.1449 5.60276C12.2193 6.48455 12.1003 7.37197 11.7964 8.20306C11.4925 9.03416 11.0109 9.78891 10.3851 10.4147C9.75941 11.0404 9.00464 11.522 8.17355 11.8259C7.34245 12.1298 6.45505 12.2488 5.57326 12.1744L5.59846 12.1996C4.73686 12.1223 3.86968 12.2638 3.07731 12.6109C2.28494 12.9579 1.59299 13.4995 1.06559 14.1852C0.5382 14.8708 0.192428 15.6786 0.0602965 16.5334C-0.0718215 17.3884 0.0139845 18.2628 0.309762 19.0757C0.60554 19.8886 1.10174 20.6137 1.75236 21.1838C2.40299 21.754 3.18699 22.1506 4.03172 22.3371C4.87644 22.5234 5.75456 22.4936 6.58472 22.2504C7.41486 22.0071 8.17016 21.5583 8.78065 20.9454H8.77786Z" fill="#113322"/>
<path d="M52.1455 6.98145H56.3035V27.2156H52.1455V6.98145Z" fill="black"/>
<path d="M58.6584 20.2873C58.6527 18.8333 59.0785 17.41 59.8821 16.1982C60.6857 14.9863 61.8309 14.0402 63.1727 13.4798C64.5145 12.9192 65.9923 12.7696 67.4192 13.0497C68.8461 13.3299 70.1577 14.0271 71.188 15.0533C72.2182 16.0793 72.9208 17.3882 73.2066 18.8139C73.4925 20.2397 73.3487 21.7182 72.7936 23.0622C72.2385 24.4061 71.297 25.5552 70.0884 26.3636C68.8797 27.1721 67.4584 27.6037 66.0042 27.6037C65.039 27.6148 64.0813 27.4332 63.187 27.0697C62.2927 26.7063 61.4798 26.1683 60.7959 25.4872C60.1119 24.8059 59.5706 23.9952 59.2037 23.1024C58.8366 22.2096 58.6513 21.2526 58.6584 20.2873ZM69.192 20.2873C69.1746 19.6605 68.9729 19.0528 68.6121 18.54C68.2512 18.0273 67.7472 17.6322 67.1631 17.4044C66.5789 17.1765 65.9406 17.1258 65.3279 17.2588C64.7151 17.3918 64.1551 17.7023 63.7179 18.1519C63.2808 18.6013 62.9857 19.1697 62.8699 19.786C62.754 20.4021 62.8221 21.0388 63.0662 21.6165C63.3102 22.1941 63.719 22.6869 64.2415 23.0334C64.7641 23.3799 65.3773 23.5647 66.0042 23.5647C66.4336 23.5762 66.8607 23.4985 67.2587 23.3366C67.6566 23.1748 68.0167 22.9323 68.3162 22.6245C68.6156 22.3165 68.8482 21.9498 68.9988 21.5476C69.1496 21.1454 69.2154 20.7163 69.192 20.2873Z" fill="black"/>
<path d="M89.9218 13.3572V26.5172C89.9218 31.1736 86.2902 33.142 82.604 33.142C81.3062 33.2391 80.0066 32.9769 78.8478 32.3843C77.6891 31.7915 76.716 30.8912 76.0352 29.782L79.5828 27.731C79.8689 28.3092 80.3249 28.7862 80.8895 29.0982C81.4543 29.4101 82.1008 29.5423 82.7426 29.4768C83.1528 29.5336 83.5705 29.4975 83.9649 29.3711C84.3592 29.2447 84.7201 29.0312 85.0208 28.7465C85.3215 28.4618 85.5543 28.1132 85.7022 27.7262C85.8499 27.3394 85.9087 26.9243 85.8744 26.5116V25.2446C85.3875 25.8403 84.7678 26.3136 84.0649 26.6265C83.3619 26.9394 82.5956 27.0832 81.827 27.0464C79.9983 26.9887 78.2638 26.2218 76.9907 24.9077C75.7175 23.5938 75.0056 21.836 75.0056 20.0065C75.0056 18.177 75.7175 16.4191 76.9907 15.1052C78.2638 13.7912 79.9983 13.0243 81.827 12.9666C82.5956 12.9298 83.3619 13.0735 84.0649 13.3864C84.7678 13.6993 85.3875 14.1727 85.8744 14.7684V13.3544L89.9218 13.3572ZM85.8758 20.0086C85.9038 19.3385 85.7305 18.6754 85.3784 18.1046C85.0263 17.5337 84.5113 17.0813 83.9 16.8057C83.2886 16.5299 82.6087 16.4435 81.9478 16.5574C81.2869 16.6714 80.6752 16.9805 80.1914 17.4452C79.7077 17.9097 79.374 18.5083 79.2333 19.1641C79.0928 19.8199 79.1516 20.5028 79.4025 21.1248C79.6532 21.7468 80.0844 22.2797 80.6405 22.6546C81.1966 23.0295 81.8522 23.2294 82.5228 23.2286C82.9597 23.2591 83.3981 23.1978 83.8098 23.0485C84.2215 22.8993 84.5974 22.6654 84.9133 22.3621C85.2291 22.0587 85.478 21.6926 85.6438 21.2872C85.8096 20.8819 85.8887 20.4464 85.8758 20.0086Z" fill="black"/>
<path d="M92.2766 20.2873C92.2708 18.8333 92.6966 17.41 93.5003 16.1982C94.3039 14.9863 95.4491 14.0402 96.7909 13.4798C98.1326 12.9192 99.6105 12.7696 101.037 13.0497C102.464 13.3299 103.776 14.0271 104.806 15.0533C105.836 16.0793 106.539 17.3882 106.825 18.8139C107.111 20.2397 106.967 21.7182 106.412 23.0622C105.857 24.4061 104.915 25.5552 103.707 26.3636C102.498 27.1721 101.077 27.6037 99.6224 27.6037C98.6572 27.6148 97.6993 27.4332 96.8051 27.0697C95.9108 26.7063 95.098 26.1683 94.4141 25.4872C93.73 24.8059 93.1888 23.9952 92.8219 23.1024C92.4548 22.2096 92.2694 21.2526 92.2766 20.2873ZM102.81 20.2873C102.793 19.6605 102.591 19.0528 102.23 18.54C101.869 18.0273 101.365 17.6322 100.781 17.4044C100.197 17.1765 99.5587 17.1258 98.946 17.2588C98.3332 17.3918 97.7732 17.7023 97.336 18.1519C96.8989 18.6013 96.6038 19.1697 96.4879 19.786C96.372 20.4021 96.4403 21.0388 96.6843 21.6165C96.9283 22.1941 97.3371 22.6869 97.8596 23.0334C98.3822 23.3799 98.9953 23.5647 99.6224 23.5647C100.052 23.5762 100.479 23.4985 100.877 23.3366C101.275 23.1748 101.635 22.9323 101.934 22.6245C102.234 22.3165 102.466 21.9498 102.617 21.5476C102.768 21.1454 102.834 20.7163 102.81 20.2873Z" fill="black"/>
<path d="M108.907 9.64275C108.907 9.14932 109.054 8.66698 109.328 8.25672C109.602 7.84645 109.992 7.52668 110.447 7.33786C110.903 7.14903 111.405 7.09962 111.889 7.19589C112.373 7.29215 112.817 7.52976 113.166 7.87867C113.515 8.22756 113.753 8.67209 113.849 9.15604C113.945 9.63998 113.896 10.1416 113.707 10.5975C113.518 11.0533 113.198 11.443 112.788 11.7171C112.378 11.9913 111.896 12.1376 111.402 12.1376C110.742 12.131 110.112 11.8661 109.645 11.3996C109.179 10.9331 108.914 10.3024 108.907 9.64275ZM109.327 13.357H113.487V27.2169H109.322L109.327 13.357Z" fill="black"/>
<path d="M131.44 20.2869C131.488 21.203 131.355 22.1194 131.047 22.9836C130.74 23.8478 130.265 24.6428 129.649 25.3227C129.034 26.0026 128.29 26.5542 127.46 26.9456C126.63 27.3369 125.732 27.5605 124.815 27.6033C124.045 27.6453 123.275 27.5154 122.561 27.223C121.846 26.9304 121.206 26.4826 120.687 25.9121V32.7595H116.529V13.3569H120.687V14.6589C121.207 14.0889 121.847 13.6414 122.561 13.3492C123.275 13.0569 124.045 12.9271 124.815 12.9691C125.732 13.0118 126.631 13.2353 127.461 13.6267C128.29 14.0182 129.034 14.5698 129.65 15.2499C130.266 15.93 130.741 16.7252 131.048 17.5897C131.355 18.4541 131.489 19.3708 131.44 20.2869ZM127.282 20.2869C127.266 19.6383 127.059 19.0089 126.687 18.4773C126.314 17.9459 125.794 17.5359 125.19 17.2991C124.586 17.062 123.925 17.0084 123.291 17.1451C122.656 17.2816 122.076 17.6022 121.623 18.0667C121.17 18.5313 120.864 19.1191 120.744 19.7568C120.623 20.3943 120.694 21.0532 120.946 21.6511C121.198 22.249 121.621 22.7592 122.161 23.118C122.702 23.4767 123.336 23.6681 123.985 23.6679C124.431 23.6878 124.875 23.6132 125.29 23.4491C125.705 23.2852 126.08 23.0353 126.391 22.7161C126.702 22.3967 126.943 22.0154 127.096 21.5968C127.25 21.1782 127.313 20.7317 127.282 20.2869Z" fill="black"/>
<path d="M144.271 23.0577C144.271 26.2455 141.501 27.6035 138.507 27.6035C137.298 27.713 136.084 27.4574 135.021 26.8692C133.959 26.2812 133.097 25.388 132.548 24.3051L136.15 22.2541C136.296 22.7546 136.609 23.1902 137.037 23.4877C137.464 23.7853 137.982 23.9271 138.502 23.8893C139.499 23.8893 139.998 23.5841 139.998 23.0311C139.998 21.5051 133.179 22.3101 133.179 17.5151C133.179 14.4925 135.73 12.9693 138.612 12.9693C139.696 12.935 140.768 13.1921 141.719 13.7136C142.67 14.2352 143.463 15.0021 144.016 15.9345L140.469 17.8469C140.313 17.4839 140.054 17.1747 139.724 16.9578C139.394 16.7409 139.007 16.6261 138.612 16.6275C137.891 16.6275 137.448 16.9075 137.448 17.4031C137.453 18.9837 144.271 17.9295 144.271 23.0577Z" fill="black"/>
<path d="M159.46 13.3569V27.2169H155.302V25.9135C154.821 26.4887 154.212 26.9418 153.524 27.2358C152.835 27.5298 152.087 27.6563 151.34 27.6047C148.54 27.6047 146.16 25.6097 146.16 21.8647V13.3569H150.318V21.2557C150.283 21.5859 150.32 21.9196 150.428 22.2336C150.535 22.5478 150.71 22.8348 150.939 23.0746C151.169 23.3144 151.447 23.5013 151.757 23.6224C152.065 23.7435 152.397 23.7959 152.728 23.7757C154.253 23.7757 155.306 22.8895 155.306 20.9211V13.3611L159.46 13.3569Z" fill="black"/>
<path d="M183.302 18.7065V27.2157H179.144V19.0663C179.144 17.6803 178.479 16.7941 177.149 16.7941C175.763 16.7941 174.986 17.7643 174.986 19.3995V27.2157H170.829V19.0663C170.829 17.6803 170.164 16.7941 168.833 16.7941C167.447 16.7941 166.671 17.7643 166.671 19.3995V27.2157H162.513V13.3557H166.671V14.6297C167.102 14.0645 167.668 13.6162 168.316 13.326C168.966 13.0356 169.677 12.9126 170.385 12.9679C171.097 12.933 171.805 13.0832 172.442 13.4037C173.078 13.724 173.619 14.2039 174.016 14.7963C174.476 14.1765 175.087 13.6837 175.789 13.3639C176.492 13.0442 177.265 12.908 178.035 12.9679C181.217 12.9693 183.302 15.2415 183.302 18.7065Z" fill="black"/>
<path d="M186.819 13.2718C188.522 13.2718 189.904 11.8903 189.904 10.1862C189.904 8.48205 188.522 7.10059 186.819 7.10059C185.115 7.10059 183.733 8.48205 183.733 10.1862C183.733 11.8903 185.115 13.2718 186.819 13.2718Z" fill="black"/>
</svg>
