<svg width="135" height="65" viewBox="0 0 135 65" fill="none" xmlns="http://www.w3.org/2000/svg">
<path d="M0 38.8071H4.35484V58.6068H0V38.8071Z" fill="black"/>
<path d="M6.73055 51.8884C6.72515 49.0044 8.45787 46.4013 11.1202 45.2939C13.7825 44.1865 16.8496 44.793 18.8904 46.8304C20.9311 48.8678 21.5432 51.9345 20.4411 54.5996C19.3389 57.2646 16.7397 59.0026 13.8564 59.0026C11.9623 59.0242 10.1392 58.2821 8.79856 56.9436C7.45787 55.6051 6.71248 53.783 6.73055 51.8884ZM16.9523 51.8884C16.9083 50.1893 15.5034 48.8432 13.8044 48.8723C12.1054 48.9015 10.7474 50.2949 10.7617 51.9945C10.7759 53.6941 12.1571 55.0645 13.8564 55.0651C14.6986 55.0887 15.5122 54.7588 16.1003 54.1554C16.6884 53.5519 16.9973 52.7299 16.9523 51.8884Z" fill="black"/>
<path d="M37.2143 45.1296V58.0348C37.2143 62.6014 33.6886 64.5278 30.123 64.5278C27.567 64.7203 25.1185 63.4521 23.7769 61.2409L27.2094 59.2337C27.7667 60.3712 28.9531 61.0492 30.2029 60.9445C31.0175 61.082 31.849 60.8287 32.4534 60.2588C33.0579 59.689 33.3668 58.8673 33.2895 58.0348V56.782C32.3377 57.9675 30.885 58.6229 29.378 58.5467C25.6159 58.5467 22.5662 55.4587 22.5662 51.6495C22.5662 47.8403 25.6159 44.7524 29.378 44.7524C30.8838 44.6827 32.3337 45.3368 33.2895 46.5171V45.17L37.2143 45.1296ZM33.2895 51.6495C33.3438 50.3092 32.5882 49.0699 31.3805 48.5185C30.1727 47.967 28.7552 48.214 27.799 49.1425C26.8428 50.071 26.5398 51.4947 27.0334 52.7396C27.5271 53.9844 28.7183 54.8006 30.0432 54.8017C30.898 54.863 31.7385 54.5553 32.3569 53.9548C32.9754 53.3542 33.3142 52.5168 33.2895 51.6495Z" fill="black"/>
<path d="M39.5897 51.8884C39.5843 49.0044 41.317 46.4013 43.9793 45.2939C46.6416 44.1865 49.7088 44.793 51.7495 46.8304C53.7903 48.8678 54.4024 51.9345 53.3002 54.5996C52.198 57.2646 49.5989 59.0026 46.7155 59.0026C44.8214 59.0242 42.9984 58.2821 41.6577 56.9436C40.317 55.6051 39.5716 53.783 39.5897 51.8884ZM49.8114 51.8884C49.7674 50.1893 48.3625 48.8432 46.6635 48.8723C44.9645 48.9015 43.6065 50.2949 43.6208 51.9945C43.6351 53.6941 45.0163 55.0645 46.7155 55.0651C47.5531 55.0811 48.3596 54.7479 48.9418 54.1454C49.524 53.5428 49.8293 52.7252 49.7847 51.8884H49.8114Z" fill="black"/>
<path d="M55.821 41.2753C55.821 39.9122 56.9732 38.8071 58.3944 38.8071C59.8156 38.8071 60.9677 39.9122 60.9677 41.2753C60.9677 42.6384 59.8156 43.7435 58.3944 43.7435C56.9764 43.7361 55.8288 42.6354 55.821 41.2753ZM56.2594 44.9369H60.5011V58.6068H56.2594V44.9369Z" fill="black"/>
<path d="M77.5853 51.9097C77.6821 53.72 77.0675 55.495 75.8778 56.841C74.6882 58.1869 73.0217 58.9927 71.2481 59.0796C69.7556 59.1527 68.3081 58.5468 67.2955 57.425V64.151H63.343V45.1299H67.2955V46.4078C68.3081 45.286 69.7556 44.6801 71.2481 44.7533C73.0193 44.8402 74.6837 45.6441 75.873 46.9871C77.0623 48.3302 77.6785 50.1016 77.5853 51.9097ZM73.6328 51.9097C73.5891 50.1485 72.1705 48.7482 70.4451 48.7631C68.7196 48.778 67.3244 50.2025 67.3098 51.9642C67.2953 53.7259 68.6667 55.1743 70.3917 55.2189C71.2648 55.2755 72.1193 54.9442 72.7354 54.31C73.3515 53.6758 73.669 52.8007 73.6064 51.9097H73.6328Z" fill="black"/>
<path d="M90.2639 54.5532C90.2639 57.6559 87.572 58.9799 84.6109 58.9799C82.1909 59.1928 79.8838 57.9222 78.783 55.7702L82.3093 53.7775C82.6043 54.7798 83.5625 55.4424 84.6109 55.369C85.5935 55.369 86.078 55.0614 86.078 54.5264C86.078 53.0419 79.3483 53.831 79.3483 49.1768C79.3483 46.2346 81.8517 44.7501 84.732 44.7501C86.8965 44.6847 88.9265 45.7905 90.0351 47.6388L86.4952 49.4844C86.1758 48.7628 85.4582 48.2962 84.6648 48.2942C83.9649 48.2942 83.5342 48.5616 83.5342 49.0565C83.588 50.5945 90.2639 49.5647 90.2639 54.5532Z" fill="black"/>
<path d="M104.912 45.1431V58.605H100.85V57.3496C99.892 58.4811 98.4426 59.0917 96.9514 58.9923C94.2437 58.9923 91.8474 57.0558 91.8474 53.4099V45.1431H95.9089V52.8223C95.8366 53.485 96.0704 54.1446 96.5455 54.6185C97.0207 55.0924 97.6868 55.3303 98.3594 55.2662C99.8486 55.2662 100.891 54.4115 100.891 52.5017V45.1431H104.912Z" fill="black"/>
<path d="M128.666 50.3472V58.6071H124.641V50.6947C124.641 49.3582 123.984 48.4761 122.696 48.4761C121.408 48.4761 120.576 49.425 120.576 51.0155V58.6071H116.551V50.6947C116.551 49.3582 115.907 48.4761 114.606 48.4761C113.305 48.4761 112.5 49.425 112.5 51.0155V58.6071H108.475V45.1347H112.5V46.3777C113.354 45.2623 114.718 44.6537 116.122 44.7605C117.534 44.6922 118.879 45.367 119.664 46.5381C120.576 45.3145 122.056 44.6433 123.581 44.7605C126.64 44.7605 128.666 46.9791 128.666 50.3472Z" fill="black"/>
<path d="M132.031 44.747C133.671 44.747 135 43.4173 135 41.7771C135 40.1368 133.671 38.8071 132.031 38.8071C130.391 38.8071 129.062 40.1368 129.062 41.7771C129.062 43.4173 130.391 44.747 132.031 44.747Z" fill="black"/>
<path d="M45.7259 28.5115C53.4878 28.5115 59.7801 22.2176 59.7801 14.4538C59.7801 6.68987 53.4878 0.395996 45.7259 0.395996C37.9639 0.395996 31.6716 6.68987 31.6716 14.4538C31.6716 22.2176 37.9639 28.5115 45.7259 28.5115Z" fill="black"/>
<path d="M77.3973 28.5115C85.1592 28.5115 91.4515 22.2176 91.4515 14.4538C91.4515 6.68987 85.1592 0.395996 77.3973 0.395996C69.6353 0.395996 63.343 6.68987 63.343 14.4538C63.343 22.2176 69.6353 28.5115 77.3973 28.5115Z" fill="black"/>
<path d="M28.5045 0H0.395996V28.1155H28.5045V0Z" fill="black"/>
</svg>
