<svg width="239" height="48" viewBox="0 0 239 48" fill="none" xmlns="http://www.w3.org/2000/svg">
<path d="M76.8317 39.0368C75.6237 39.1023 74.4289 38.7586 73.44 38.0611C73.0268 37.7546 72.6944 37.352 72.4714 36.888C72.2485 36.4241 72.1418 35.9128 72.1605 35.3984V16.5559C72.1506 16.4761 72.1591 16.3951 72.1852 16.3191C72.2113 16.2431 72.2544 16.174 72.3112 16.1172C72.368 16.0603 72.437 16.0172 72.5129 15.9911C72.5889 15.965 72.6698 15.9565 72.7495 15.9664H76.1615C76.5474 15.9664 76.7302 16.1697 76.7302 16.5559V33.9349C76.7302 34.7073 77.0755 35.0935 77.7863 35.0935C78.0876 35.1059 78.3891 35.0717 78.6799 34.9919C79.0861 34.9919 79.3095 35.1138 79.3298 35.4797L79.6345 38.0205C79.6491 38.0946 79.6477 38.1709 79.6304 38.2444C79.6131 38.3179 79.5802 38.3868 79.534 38.4465C79.4878 38.5062 79.4294 38.5553 79.3626 38.5906C79.2959 38.6258 79.2224 38.6462 79.1471 38.6506C78.3997 38.8977 77.6188 39.0279 76.8317 39.0368Z" fill="#4ADE80"/>
<path d="M96.0244 36.8613C94.3099 38.279 92.1554 39.0545 89.9314 39.0545C87.7075 39.0545 85.553 38.279 83.8385 36.8613C82.3316 35.3388 81.4862 33.2824 81.4862 31.1394C81.4862 28.9964 82.3316 26.94 83.8385 25.4175C85.5563 24.0072 87.7095 23.2363 89.9314 23.2363C92.1533 23.2363 94.3065 24.0072 96.0244 25.4175C97.4965 26.9541 98.3185 29.0005 98.3185 31.1293C98.3185 33.258 97.4965 35.3044 96.0244 36.841V36.8613ZM87.0475 34.1782C87.8431 34.8995 88.8782 35.299 89.9517 35.299C91.0252 35.299 92.0604 34.8995 92.856 34.1782C93.5761 33.3496 93.9727 32.2884 93.9727 31.1902C93.9727 30.0921 93.5761 29.0309 92.856 28.2023C92.0604 27.481 91.0252 27.0815 89.9517 27.0815C88.8782 27.0815 87.8431 27.481 87.0475 28.2023C86.3274 29.0309 85.9308 30.0921 85.9308 31.1902C85.9308 32.2884 86.3274 33.3496 87.0475 34.1782Z" fill="#4ADE80"/>
<path d="M117.106 23.7516C117.492 23.7516 117.675 23.9549 117.675 24.3411V38.9151C117.71 39.8987 117.526 40.8779 117.136 41.7815C116.746 42.6851 116.16 43.4904 115.42 44.1389C113.778 45.5403 111.666 46.2667 109.51 46.1716C107.563 46.2401 105.641 45.7079 104.006 44.6471C103.308 44.1882 102.711 43.5905 102.254 42.8912C101.796 42.1918 101.487 41.4058 101.346 40.5818C101.346 40.1753 101.346 39.9924 101.894 39.9924H105.306C105.451 39.9973 105.591 40.044 105.71 40.127C105.829 40.2099 105.921 40.3255 105.976 40.4599C106.198 41.0772 106.639 41.5911 107.215 41.903C107.918 42.2658 108.699 42.4474 109.49 42.4315C109.967 42.4577 110.444 42.3884 110.894 42.2279C111.344 42.0674 111.757 41.8187 112.11 41.4965C112.432 41.1594 112.683 40.7605 112.847 40.3238C113.011 39.8872 113.085 39.4218 113.064 38.9557V37.6752C111.843 38.5744 110.356 39.0395 108.84 38.9964C107.779 39.035 106.721 38.8586 105.73 38.4779C104.739 38.0972 103.835 37.5199 103.072 36.7808C101.608 35.2647 100.789 33.2386 100.789 31.1301C100.789 29.0215 101.608 26.9954 103.072 25.4794C103.838 24.7467 104.744 24.1751 105.734 23.7981C106.725 23.421 107.781 23.2463 108.84 23.2841C110.4 23.2429 111.926 23.7379 113.166 24.6866V24.3614C113.157 24.2835 113.165 24.2045 113.19 24.1301C113.215 24.0558 113.256 23.9879 113.31 23.9315C113.365 23.875 113.431 23.8314 113.504 23.8038C113.578 23.7762 113.656 23.7653 113.735 23.7719L117.106 23.7516ZM109.226 35.3783C109.749 35.3945 110.269 35.2955 110.75 35.0883C111.231 34.881 111.66 34.5706 112.008 34.179C112.683 33.3063 113.05 32.2338 113.05 31.1301C113.05 30.0263 112.683 28.9538 112.008 28.0811C111.662 27.6948 111.235 27.3891 110.758 27.1854C110.28 26.9817 109.765 26.8851 109.246 26.9022C108.717 26.8855 108.19 26.9842 107.703 27.1912C107.215 27.3983 106.779 27.7089 106.423 28.1014C105.675 28.9362 105.282 30.03 105.326 31.1504C105.29 32.2598 105.674 33.342 106.403 34.179C106.759 34.5705 107.196 34.8804 107.683 35.0874C108.171 35.2943 108.697 35.3936 109.226 35.3783Z" fill="#4ADE80"/>
<path d="M135.202 36.8612C133.484 38.2716 131.331 39.0424 129.109 39.0424C126.887 39.0424 124.734 38.2716 123.016 36.8612C121.543 35.3213 120.72 33.2715 120.72 31.1393C120.72 29.0072 121.543 26.9574 123.016 25.4175C124.736 24.0107 126.888 23.2422 129.109 23.2422C131.33 23.2422 133.483 24.0107 135.202 25.4175C136.674 26.954 137.496 29.0004 137.496 31.1292C137.496 33.2579 136.674 35.3044 135.202 36.8409V36.8612ZM126.205 34.1781C126.594 34.5488 127.053 34.8385 127.555 35.0304C128.057 35.2223 128.592 35.3126 129.129 35.2961C129.663 35.3099 130.194 35.2183 130.693 35.0265C131.191 34.8346 131.647 34.5464 132.034 34.1781C132.742 33.3439 133.131 32.2849 133.131 31.1901C133.131 30.0954 132.742 29.0364 132.034 28.2022C131.647 27.8339 131.191 27.5457 130.693 27.3538C130.194 27.162 129.663 27.0704 129.129 27.0842C128.592 27.0677 128.057 27.158 127.555 27.3499C127.053 27.5418 126.594 27.8315 126.205 28.2022C125.496 29.0364 125.107 30.0954 125.107 31.1901C125.107 32.2849 125.496 33.3439 126.205 34.1781Z" fill="#4ADE80"/>
<path d="M144.829 20.2956C144.292 20.7659 143.603 21.0251 142.889 21.0251C142.176 21.0251 141.487 20.7659 140.95 20.2956C140.706 20.0657 140.512 19.7884 140.38 19.4809C140.247 19.1733 140.179 18.8418 140.179 18.5069C140.179 18.1719 140.247 17.8405 140.38 17.5329C140.512 17.2253 140.706 16.9481 140.95 16.7181C141.492 16.2596 142.179 16.0081 142.889 16.0081C143.599 16.0081 144.286 16.2596 144.829 16.7181C145.072 16.9481 145.266 17.2253 145.399 17.5329C145.531 17.8405 145.6 18.1719 145.6 18.5069C145.6 18.8418 145.531 19.1733 145.399 19.4809C145.266 19.7884 145.072 20.0657 144.829 20.2956ZM145.255 39.0365C144.048 39.0957 142.855 38.7526 141.864 38.0608C141.457 37.7497 141.13 37.3457 140.911 36.8824C140.692 36.4192 140.587 35.9102 140.604 35.398V24.3405C140.594 24.2608 140.603 24.1798 140.629 24.1038C140.655 24.0277 140.698 23.9587 140.755 23.9018C140.812 23.845 140.881 23.8019 140.957 23.7757C141.033 23.7496 141.114 23.7412 141.193 23.7511H144.605C144.991 23.7511 145.174 23.9543 145.174 24.3405V33.9346C145.174 34.707 145.519 35.0932 146.21 35.0932C146.518 35.1042 146.826 35.07 147.124 34.9915C147.53 34.9915 147.753 35.1135 147.774 35.4794L148.078 38.0201C148.093 38.0942 148.092 38.1706 148.074 38.2441C148.057 38.3176 148.024 38.3865 147.978 38.4462C147.932 38.5059 147.873 38.555 147.807 38.5902C147.74 38.6254 147.666 38.6459 147.591 38.6503C146.837 38.8988 146.049 39.029 145.255 39.0365Z" fill="#4ADE80"/>
<path d="M160.63 23.2629C161.696 23.2208 162.759 23.3934 163.757 23.7705C164.755 24.1476 165.667 24.7215 166.439 25.4582C167.875 27.0008 168.673 29.0309 168.673 31.1394C168.673 33.2479 167.875 35.278 166.439 36.8206C165.67 37.5638 164.76 38.1433 163.761 38.5242C162.763 38.905 161.698 39.0792 160.63 39.0362C159.109 39.07 157.619 38.6061 156.385 37.715V45.0528C156.385 45.439 156.182 45.6219 155.796 45.6219H152.384C152.306 45.6365 152.226 45.6318 152.15 45.6084C152.075 45.5849 152.006 45.5434 151.95 45.4873C151.894 45.4313 151.852 45.3624 151.829 45.2867C151.806 45.211 151.801 45.1307 151.816 45.0528V28.3852C151.839 28.2222 151.825 28.0558 151.773 27.8994C151.721 27.7429 151.634 27.6008 151.517 27.4843C151.401 27.3678 151.259 27.2801 151.103 27.2283C150.946 27.1765 150.78 27.162 150.617 27.1859H149.947C149.5 27.1859 149.277 27.0233 149.277 26.6981V24.2996C149.266 24.1512 149.307 24.0036 149.392 23.8816C149.477 23.7595 149.601 23.6703 149.744 23.6288C150.446 23.3732 151.19 23.2492 151.937 23.2629C152.683 23.1969 153.431 23.3551 154.086 23.7172C154.741 24.0794 155.273 24.6289 155.613 25.2956C156.268 24.6333 157.05 24.1114 157.912 23.7619C158.775 23.4125 159.7 23.2427 160.63 23.2629ZM157.462 34.1782C157.824 34.5569 158.259 34.8584 158.74 35.0643C159.222 35.2703 159.741 35.3764 160.264 35.3764C160.788 35.3764 161.307 35.2703 161.788 35.0643C162.27 34.8584 162.705 34.5569 163.067 34.1782C163.83 33.3267 164.231 32.2109 164.184 31.0683C164.237 29.9246 163.836 28.8064 163.067 27.9583C162.705 27.5796 162.27 27.2781 161.788 27.0722C161.307 26.8662 160.788 26.7601 160.264 26.7601C159.741 26.7601 159.222 26.8662 158.74 27.0722C158.259 27.2781 157.824 27.5796 157.462 27.9583C156.723 28.8213 156.338 29.9327 156.385 31.0683C156.344 32.203 156.728 33.3121 157.462 34.1782Z" fill="#4ADE80"/>
<path d="M178.259 39.0369C176.435 39.1119 174.628 38.6754 173.039 37.7767C172.402 37.3925 171.859 36.8696 171.451 36.2467C171.043 35.6239 170.781 34.9172 170.683 34.1789C170.683 33.7724 170.825 33.5692 171.272 33.5692H174.258C174.4 33.5747 174.537 33.6194 174.656 33.6983C174.774 33.7772 174.868 33.8873 174.928 34.0163C175.354 35.1139 176.471 35.6628 178.259 35.6628C178.882 35.6913 179.503 35.5656 180.066 35.2969C180.261 35.209 180.428 35.0699 180.549 34.8945C180.671 34.7191 180.743 34.5139 180.757 34.3009C180.757 33.7724 180.432 33.4065 179.782 33.1626C179.011 32.9058 178.214 32.7354 177.406 32.6545C176.448 32.546 175.498 32.3762 174.562 32.1463C173.652 31.9401 172.824 31.4658 172.186 30.7844C171.81 30.3214 171.533 29.7858 171.373 29.2111C171.213 28.6364 171.172 28.0349 171.254 27.4439C171.336 26.8529 171.539 26.2851 171.849 25.7757C172.16 25.2664 172.572 24.8265 173.059 24.4833C174.523 23.55 176.241 23.0954 177.974 23.1824C179.653 23.1256 181.313 23.5411 182.767 24.3816C183.353 24.7139 183.858 25.1727 184.245 25.7247C184.631 26.2768 184.89 26.9082 185.001 27.5729C185.001 27.9794 184.819 28.1827 184.453 28.1827H181.447C181.321 28.1902 181.195 28.1593 181.086 28.094C180.977 28.0287 180.891 27.9321 180.838 27.8168C180.637 27.3354 180.259 26.9496 179.782 26.7395C179.244 26.4577 178.643 26.3177 178.035 26.333C177.44 26.3006 176.846 26.4194 176.309 26.6785C176.12 26.7516 175.957 26.8797 175.841 27.0463C175.725 27.213 175.662 27.4105 175.659 27.6135C175.672 27.8915 175.774 28.158 175.949 28.3738C176.125 28.5897 176.365 28.7435 176.634 28.8128C177.414 29.107 178.225 29.3115 179.051 29.4226C180.001 29.5477 180.943 29.7241 181.874 29.9511C182.784 30.1573 183.612 30.6316 184.25 31.3129C184.592 31.6883 184.855 32.1276 185.026 32.6056C185.197 33.0836 185.271 33.5907 185.245 34.0976C185.263 34.8003 185.098 35.4955 184.767 36.1153C184.436 36.7352 183.95 37.2586 183.356 37.6344C181.839 38.6093 180.061 39.0986 178.259 39.0369Z" fill="#4ADE80"/>
<path d="M206.713 38.0206C206.724 38.0927 206.721 38.1665 206.704 38.2375C206.687 38.3084 206.655 38.3752 206.612 38.4339C206.568 38.4926 206.513 38.542 206.451 38.5793C206.388 38.6165 206.318 38.6408 206.246 38.6507C205.504 38.893 204.731 39.0231 203.951 39.0369C203.179 39.1169 202.399 38.9961 201.688 38.6863C200.976 38.3765 200.357 37.8882 199.889 37.2685C198.454 38.5029 196.599 39.1363 194.71 39.0369C193.833 39.0773 192.957 38.9337 192.138 38.6151C191.32 38.2965 190.577 37.8102 189.957 37.1872C189.342 36.5344 188.865 35.7641 188.554 34.9223C188.244 34.0806 188.106 33.1848 188.15 32.2885V24.3409C188.15 23.9547 188.333 23.7515 188.718 23.7515H192.13C192.516 23.7515 192.699 23.9547 192.699 24.3409V31.6787C192.662 32.5929 192.974 33.487 193.572 34.1789C193.871 34.4959 194.234 34.7451 194.637 34.9099C195.04 35.0747 195.473 35.1512 195.908 35.1342C196.353 35.1537 196.798 35.0847 197.216 34.9312C197.634 34.7777 198.018 34.5427 198.345 34.2399C198.655 33.9207 198.896 33.5413 199.053 33.1253C199.21 32.7092 199.28 32.2653 199.259 31.821V24.3409C199.259 23.9547 199.442 23.7515 199.828 23.7515H203.28C203.666 23.7515 203.849 23.9547 203.849 24.3409V33.9146C203.849 34.7074 204.194 35.0936 204.865 35.0936C205.179 35.1058 205.494 35.0715 205.799 34.9919C205.876 34.9704 205.956 34.9665 206.035 34.9806C206.113 34.9947 206.188 35.0264 206.252 35.0734C206.317 35.1203 206.37 35.1813 206.407 35.2516C206.445 35.322 206.466 35.4 206.469 35.4798L206.713 38.0206Z" fill="#4ADE80"/>
<path d="M238.985 38.0201C239.003 38.0929 239.005 38.1688 238.99 38.2423C238.975 38.3159 238.945 38.3852 238.9 38.4455C238.855 38.5057 238.798 38.5553 238.732 38.5907C238.666 38.6261 238.593 38.6464 238.518 38.6502C237.763 38.8959 236.976 39.0261 236.182 39.0364C234.975 39.0988 233.781 38.7553 232.791 38.0607C232.362 37.7632 232.014 37.3645 231.777 36.9C231.539 36.4355 231.42 35.9196 231.43 35.398V30.6213C231.473 29.7098 231.168 28.8161 230.577 28.1212C230.292 27.8035 229.94 27.553 229.547 27.3878C229.153 27.2226 228.728 27.1468 228.302 27.1658C227.918 27.1513 227.536 27.2242 227.184 27.3792C226.832 27.5341 226.52 27.767 226.271 28.0602C225.735 28.7413 225.461 29.5925 225.499 30.4587V37.9591C225.499 38.3453 225.317 38.5486 224.931 38.5486H221.498C221.419 38.5585 221.338 38.55 221.262 38.5239C221.186 38.4977 221.117 38.4546 221.06 38.3978C221.003 38.3409 220.96 38.2719 220.934 38.1959C220.908 38.1198 220.899 38.0389 220.909 37.9591V30.6213C220.954 29.7198 220.673 28.8324 220.117 28.1212C219.87 27.8224 219.559 27.5819 219.208 27.4168C218.857 27.2517 218.474 27.166 218.086 27.1658C217.672 27.1491 217.259 27.2201 216.874 27.3742C216.489 27.5283 216.141 27.7621 215.852 28.0602C215.271 28.7196 214.972 29.5809 215.019 30.4587V37.9591C215.029 38.0389 215.021 38.1198 214.995 38.1959C214.969 38.2719 214.926 38.3409 214.869 38.3978C214.812 38.4546 214.743 38.4977 214.667 38.5239C214.591 38.55 214.51 38.5585 214.431 38.5486H211.12C210.734 38.5486 210.551 38.3453 210.551 37.9591V28.3854C210.575 28.2224 210.561 28.056 210.509 27.8996C210.457 27.7432 210.37 27.601 210.253 27.4845C210.137 27.368 209.995 27.2803 209.838 27.2285C209.682 27.1767 209.516 27.1622 209.353 27.1861H208.683C208.236 27.1861 208.013 27.0235 208.013 26.6983V24.2998C208.002 24.1514 208.043 24.0038 208.128 23.8818C208.213 23.7597 208.337 23.6705 208.48 23.629C209.182 23.3734 209.926 23.2494 210.673 23.2632C211.391 23.202 212.111 23.3451 212.75 23.676C213.39 24.0069 213.923 24.512 214.288 25.1332C214.974 24.4832 215.785 23.9817 216.673 23.6599C217.56 23.3382 218.505 23.2031 219.447 23.2632C220.362 23.2185 221.275 23.3902 222.111 23.7646C222.947 24.1389 223.684 24.7053 224.26 25.4177C224.933 24.6866 225.759 24.1141 226.679 23.7415C227.599 23.3689 228.591 23.2055 229.582 23.2632C230.468 23.2216 231.354 23.3646 232.182 23.683C233.011 24.0013 233.764 24.4882 234.395 25.1129C235.012 25.7643 235.491 26.5344 235.801 27.3765C236.112 28.2185 236.249 29.115 236.203 30.0115V33.9345C236.203 34.7069 236.548 35.0931 237.198 35.0931C237.513 35.1078 237.828 35.0735 238.132 34.9915C238.552 34.9915 238.775 35.1541 238.802 35.4793L238.985 38.0201Z" fill="#4ADE80"/>
<path d="M0.8327 21.1083C2.33109 15.0809 5.80133 9.72845 10.6909 5.90325C15.5804 2.07804 21.6081 0 27.8142 0C34.0203 0 40.0481 2.07804 44.9376 5.90325C49.8271 9.72845 53.2974 15.0809 54.7957 21.1083H52.3586C48.2472 21.0477 44.2202 22.2774 40.8429 24.6248C40.648 24.766 40.4445 24.895 40.2336 25.011H39.9493C39.7384 24.895 39.5349 24.766 39.34 24.6248C35.9328 22.3318 31.9201 21.1071 27.8142 21.1071C23.7083 21.1071 19.6956 22.3318 16.2884 24.6248C16.0935 24.766 15.89 24.895 15.6791 25.011H15.3948C15.1839 24.895 14.9804 24.766 14.7855 24.6248C11.4083 22.2774 7.38121 21.0477 3.26987 21.1083H0.8327ZM47.9717 33.8529C49.2228 32.8778 50.7734 32.3677 52.3586 32.4098H55.6284V25.885H52.3586C49.5665 25.8512 46.8381 26.721 44.5799 28.3648C43.3092 29.3025 41.7718 29.8083 40.193 29.8083C38.6142 29.8083 37.0769 29.3025 35.8061 28.3648C33.4906 26.7517 30.737 25.8869 27.9158 25.8869C25.0945 25.8869 22.3409 26.7517 20.0254 28.3648C18.7547 29.3025 17.2173 29.8083 15.6385 29.8083C14.0597 29.8083 12.5224 29.3025 11.2516 28.3648C8.96554 26.7 6.19813 25.8291 3.37142 25.885H0V32.4098H3.26987C4.85507 32.3677 6.40568 32.8778 7.65678 33.8529C9.96805 35.4671 12.7186 36.3327 15.537 36.3327C18.3554 36.3327 21.1059 35.4671 23.4172 33.8529C24.6699 32.8808 26.2194 32.3711 27.8041 32.4098C29.3898 32.3643 30.9415 32.8748 32.191 33.8529C34.5065 35.4661 37.2601 36.3309 40.0813 36.3309C42.9026 36.3309 45.6562 35.4661 47.9717 33.8529ZM47.9717 45.5203C49.2228 44.5451 50.7734 44.035 52.3586 44.0771H55.6284V37.5523H52.3586C49.5665 37.5185 46.8381 38.3883 44.5799 40.0322C43.3092 40.9698 41.7718 41.4756 40.193 41.4756C38.6142 41.4756 37.0769 40.9698 35.8061 40.0322C33.4906 38.419 30.737 37.5542 27.9158 37.5542C25.0945 37.5542 22.3409 38.419 20.0254 40.0322C18.7547 40.9698 17.2173 41.4756 15.6385 41.4756C14.0597 41.4756 12.5224 40.9698 11.2516 40.0322C8.96554 38.3673 6.19813 37.4964 3.37142 37.5523H0V44.0771H3.26987C4.85507 44.035 6.40568 44.5451 7.65678 45.5203C9.96805 47.1345 12.7186 48 15.537 48C18.3554 48 21.1059 47.1345 23.4172 45.5203C24.6699 44.5481 26.2194 44.0384 27.8041 44.0771C29.3898 44.0316 30.9415 44.5421 32.191 45.5203C34.5065 47.1334 37.2601 47.9982 40.0813 47.9982C42.9026 47.9982 45.6562 47.1334 47.9717 45.5203Z" fill="#4ADE80"/>
</svg>
