<svg width="30" height="34" viewBox="0 0 30 34" fill="none" xmlns="http://www.w3.org/2000/svg">
<rect width="30" height="33.5593" rx="4" fill="#B291D2"/>
<path d="M9.15271 4.70319H4.04431V9.66119H2.54236V3.05084H9.15271V4.70319Z" fill="white"/>
<path d="M20.8473 4.70319H25.9557V9.66119H27.4576V3.05084H20.8473V4.70319Z" fill="white"/>
<path d="M9.15271 28.3476H4.04431V23.3896H2.54236V29.9999H9.15271V28.3476Z" fill="white"/>
<path d="M20.8473 28.3476H25.9557V23.3896H27.4576V29.9999H20.8473V28.3476Z" fill="white"/>
<circle cx="15.2543" cy="14.2372" r="7.62712" fill="#E8E8E8"/>
<path fill-rule="evenodd" clip-rule="evenodd" d="M17.9097 12.5033C17.8237 11.9829 18.106 11.8749 17.9097 11.3802C17.4734 10.4635 16.2844 10.503 15.412 10.4326C14.4388 10.3953 13.4539 10.5237 12.5568 10.9138C12.3425 11.0069 12.1364 11.1165 11.9388 11.2409C11.768 11.3486 11.7915 11.5532 11.8992 11.6649C11.1224 12.7649 11.5667 14.2414 10.9469 15.3992C10.8324 15.6062 10.681 15.7918 10.5814 16.0071C10.4302 16.3345 10.4205 16.8035 10.7635 17.0209C11.2467 17.2803 11.5163 16.7668 11.7538 17.5111C12.9394 20.1065 15.3233 20.2527 17.5864 18.8995C17.7822 18.7906 17.982 18.6675 18.1299 18.4964C18.4655 18.1188 18.4259 17.5877 18.4334 17.116C18.4375 16.8397 18.4382 16.5632 18.4355 16.2868C18.4249 15.1671 18.0538 13.6138 17.9097 12.5033Z" fill="white"/>
<path fill-rule="evenodd" clip-rule="evenodd" d="M13.0897 9.39057C14.4561 8.77076 16.0059 8.53571 17.4964 8.68988C18.232 8.76586 18.9581 8.92886 19.649 9.19365L19.7095 9.21705C19.8801 9.2827 20.0639 9.34785 20.1935 9.48147C20.3444 9.63676 20.3867 9.87159 20.2789 10.0634C20.1951 10.2125 20.0445 10.3194 19.8839 10.3764C19.9404 10.4228 19.9941 10.4745 20.0445 10.5322C20.1294 10.6289 20.1358 10.7668 20.0445 10.8621C19.8685 11.046 19.6401 11.1789 19.3942 11.2427C19.4218 11.3761 19.4069 11.5239 19.3476 11.6569C19.1775 12.0387 18.6985 12.0842 18.3298 12.0615L18.3187 12.0608L18.2982 12.2954C18.2873 12.4204 18.2124 12.5173 18.0854 12.5365C18.081 12.5371 18.0765 12.5376 18.0721 12.538C18.273 13.2648 18.3945 14.014 18.5065 14.7588C18.5651 15.1476 18.6175 15.5373 18.6677 15.9273L18.6843 16.0573C18.7378 16.4777 18.8046 16.9024 18.8278 17.3259C18.8485 17.7102 18.7752 18.0772 18.5384 18.3873C18.3258 18.6654 18.036 18.8737 17.7243 19.0283C17.02 19.3778 16.2788 19.6381 15.4999 19.7588L15.4479 19.7668C15.1473 19.8127 14.8375 19.8514 14.5401 19.7682C14.2788 19.6951 14.0047 19.5066 14.0638 19.2038C14.0836 19.1016 14.2266 19.0971 14.2756 19.1762L14.2869 19.1943C14.3457 19.2876 14.4101 19.3743 14.5127 19.4224C14.6328 19.479 14.772 19.4948 14.9033 19.4964C15.2698 19.5006 15.6514 19.4093 16.0043 19.3177C16.6633 19.1466 17.3402 18.8677 17.88 18.445C18.1097 18.2654 18.2942 18.0409 18.3593 17.7519C18.4397 17.3956 18.3657 17.0062 18.3292 16.6482C18.254 15.9094 18.1645 15.172 18.0701 14.4354L18.0511 14.2881C17.9716 13.6723 17.8881 13.0562 17.8484 12.4369C17.8319 12.4144 17.8208 12.3887 17.8163 12.3607L17.8101 12.3203C17.8047 12.2858 17.8038 12.2542 17.8076 12.225C17.8078 12.1131 17.811 12.002 17.8174 11.8901C17.8185 11.8701 17.8194 11.85 17.8201 11.8302C17.7038 11.8558 17.5866 11.8765 17.469 11.8941C16.642 12.0187 15.802 12.0499 14.9683 11.9879C14.5524 11.9569 14.1395 11.9037 13.728 11.8371C13.5186 11.8032 13.3098 11.7658 13.1017 11.7239C12.9513 11.6938 12.8041 11.6531 12.6561 11.6148C12.5035 11.8369 12.4211 12.1102 12.4371 12.3787C12.4552 12.6851 12.6593 12.9629 12.602 13.2759C12.5483 13.5689 12.2973 13.6597 12.0495 13.7322L11.9441 13.7627C11.863 13.7864 11.8041 13.8092 11.7895 13.9067C11.7643 14.074 11.7953 14.2622 11.8017 14.4304C11.8095 14.6294 11.8197 14.8284 11.8244 15.0273C11.8269 15.1302 11.8309 15.2336 11.8307 15.3366C11.8305 15.4096 11.8195 15.4595 11.7912 15.5068C11.8131 15.5342 11.8327 15.5638 11.8501 15.5952C11.8556 15.6055 11.8418 15.6164 11.8336 15.6079C11.8115 15.585 11.7881 15.5643 11.7634 15.5457C11.7509 15.5611 11.7364 15.5767 11.7195 15.5934L11.7182 15.5917C11.6651 15.6445 11.5809 15.6496 11.5152 15.5934L11.4979 15.5785C11.4498 15.5363 11.4167 15.5012 11.4033 15.4315C11.4027 15.4279 11.402 15.4243 11.4016 15.4208C11.2792 15.4165 11.1549 15.4455 11.0449 15.5063C10.8704 15.6028 10.7477 15.7403 10.675 15.91C10.704 15.9439 10.7379 15.9742 10.7773 15.9996C10.7829 16.0034 10.778 16.0116 10.7719 16.0087C10.7316 15.9898 10.6955 15.9664 10.6632 15.939C10.6372 16.0058 10.6189 16.0776 10.6077 16.1536C10.5685 16.4218 10.6385 16.7495 10.8809 16.9024C10.9858 16.9685 11.1057 17.0044 11.23 17.0049C11.2906 17.0051 11.343 16.9948 11.4018 16.9803C11.4417 16.9705 11.4813 16.9563 11.523 16.9563C11.5586 16.9563 11.5916 16.9652 11.6221 16.983L11.6137 16.9838C11.5931 16.9857 11.5971 16.9866 11.6257 16.9866C11.7148 16.9904 11.7658 17.0808 11.7248 17.1595L11.7195 17.1716C11.7183 17.1741 11.7174 17.1761 11.7166 17.1777L11.7134 17.1986C11.7131 17.2006 11.7127 17.2026 11.7124 17.2047L11.7111 17.2089C11.7109 17.2096 11.7107 17.2103 11.7104 17.2109L11.844 17.4148C12.0079 17.6641 12.1754 17.9125 12.3661 18.1402C12.4997 18.3 12.6414 18.4566 12.7912 18.6016C12.9257 18.732 13.087 18.7948 13.2394 18.8973C13.3208 18.9516 13.3446 19.0655 13.2706 19.1388C13.0536 19.3542 12.7464 19.1831 12.5684 19.008C12.3999 18.842 12.2544 18.6424 12.129 18.4426C11.9064 18.0872 11.7293 17.7093 11.6518 17.2992C11.6195 17.3288 11.5782 17.3473 11.5366 17.3618C11.453 17.3907 11.361 17.4028 11.2728 17.4059C11.1037 17.4115 10.9344 17.3705 10.7822 17.2978C10.163 17.0026 10.0721 16.1186 10.4507 15.5972C10.3996 15.4492 10.3711 15.2886 10.3402 15.1516L10.3261 15.0904C10.1695 14.4066 10.0644 13.6866 10.3419 13.0166C10.3776 12.9301 10.4177 12.8459 10.4652 12.7653C10.5033 12.7004 10.5688 12.6314 10.5868 12.5576C10.6269 12.3957 10.3794 12.2254 10.3072 12.0969C10.2223 11.946 10.2103 11.768 10.3259 11.6301C10.3406 11.6127 10.3566 11.5967 10.374 11.5827C10.2644 11.3839 10.2593 11.134 10.4037 10.9379C10.4986 10.8087 10.6434 10.7182 10.8016 10.6908C10.8983 10.6741 11.0146 10.6803 11.1208 10.7102C11.7028 10.1699 12.3667 9.71853 13.0897 9.39057ZM10.855 16.1509C11.0103 16.0139 11.1819 15.9421 11.3936 15.9602C11.6063 15.9784 11.8625 16.0664 11.9875 16.2489C12.0862 16.3931 11.885 16.6045 11.7402 16.4962C11.6083 16.3975 11.5203 16.2861 11.3566 16.2331C11.2095 16.1856 11.0275 16.1551 10.8735 16.1823C10.8566 16.1852 10.8397 16.1642 10.855 16.1509Z" fill="black"/>
</svg>
