<svg width="30" height="34" viewBox="0 0 30 34" fill="none" xmlns="http://www.w3.org/2000/svg">
<rect width="30" height="33.56" rx="4" fill="#5750BE"/>
<path d="M9.15259 4.70325H4.04517V9.66125H2.54224V3.0509H9.15259V4.70325Z" fill="white"/>
<path d="M20.8472 4.70325H25.9556V9.66125H27.4575V3.0509H20.8472V4.70325Z" fill="white"/>
<path d="M9.15259 28.3482H4.04517V23.3902H2.54224V30.0005H9.15259V28.3482Z" fill="white"/>
<path d="M20.8472 28.3482H25.9556V23.3902H27.4575V30.0005H20.8472V28.3482Z" fill="white"/>
<ellipse cx="15.2541" cy="14.2376" rx="7.62712" ry="7.62727" fill="#E8E8E8"/>
<path fill-rule="evenodd" clip-rule="evenodd" d="M17.4085 12.5036C17.3234 11.9832 17.6028 11.8752 17.4085 11.3805C16.9767 10.4638 15.8001 10.5033 14.9367 10.4328C13.9736 10.3955 12.9989 10.524 12.1111 10.914C11.899 11.0072 11.6951 11.1167 11.4995 11.2412C11.3305 11.3488 11.3537 11.5535 11.4603 11.6651C10.6916 12.7651 11.1313 14.2417 10.5179 15.3996C10.4046 15.6065 10.2547 15.7921 10.1562 16.0075C10.0065 16.3349 9.99691 16.8039 10.3364 17.0213C10.8146 17.2807 11.0814 16.7672 11.3164 17.5115C12.4898 20.1069 14.849 20.2531 17.0886 18.9C17.2823 18.7911 17.4801 18.668 17.6264 18.4968C17.9585 18.1192 17.9194 17.5881 17.9268 17.1164C17.9309 16.84 17.9315 16.5636 17.9289 16.2872C17.9184 15.1674 17.5512 13.6141 17.4085 12.5036Z" fill="white"/>
<path fill-rule="evenodd" clip-rule="evenodd" d="M12.6384 9.39077C13.9906 8.77094 15.5244 8.53589 16.9994 8.69006C17.7275 8.76604 18.446 8.92905 19.1297 9.19384L19.1896 9.21725C19.3584 9.28289 19.5404 9.34805 19.6686 9.48167C19.8179 9.63697 19.8598 9.8718 19.7531 10.0636C19.6702 10.2127 19.5211 10.3196 19.3622 10.3767C19.4182 10.423 19.4713 10.4747 19.5211 10.5324C19.6051 10.6291 19.6115 10.767 19.5211 10.8624C19.347 11.0462 19.121 11.1792 18.8775 11.2429C18.9049 11.3764 18.8901 11.5241 18.8315 11.6571C18.6632 12.0389 18.1891 12.0844 17.8243 12.0617L17.8132 12.061L17.793 12.2957C17.7822 12.4206 17.7081 12.5176 17.5824 12.5367C17.578 12.5374 17.5736 12.5378 17.5692 12.5383C17.7681 13.2651 17.8882 14.0143 17.9991 14.7592C18.0571 15.148 18.1089 15.5377 18.1586 15.9276L18.1751 16.0576C18.228 16.4781 18.2941 16.9027 18.3171 17.3263C18.3376 17.7106 18.265 18.0775 18.0307 18.3877C17.8203 18.6657 17.5335 18.8741 17.225 19.0287C16.528 19.3782 15.7945 19.6385 15.0236 19.7592L14.9722 19.7672C14.6747 19.8131 14.3681 19.8518 14.0738 19.7686C13.8152 19.6955 13.544 19.507 13.6024 19.2042C13.622 19.102 13.7636 19.0975 13.8121 19.1766L13.8232 19.1947C13.8814 19.288 13.9452 19.3747 14.0467 19.4228C14.1655 19.4794 14.3033 19.4952 14.4332 19.4968C14.7959 19.501 15.1736 19.4097 15.5228 19.3181C16.175 19.147 16.8449 18.868 17.3791 18.4454C17.6064 18.2658 17.789 18.0412 17.8534 17.7523C17.933 17.396 17.8598 17.0065 17.8236 16.6485C17.7492 15.9097 17.6606 15.1723 17.5672 14.4357L17.5484 14.2884C17.4698 13.6726 17.3871 13.0565 17.3478 12.4371C17.3315 12.4146 17.3205 12.389 17.3161 12.3609L17.3099 12.3206C17.3046 12.2861 17.3037 12.2544 17.3075 12.2252C17.3077 12.1134 17.3108 12.0022 17.3172 11.8904C17.3182 11.8703 17.3191 11.8503 17.3198 11.8304C17.2047 11.8561 17.0887 11.8768 16.9723 11.8944C16.1539 12.0189 15.3226 12.0501 14.4976 11.9882C14.0859 11.9572 13.6774 11.904 13.2701 11.8373C13.0628 11.8035 12.8563 11.7661 12.6503 11.7242C12.5015 11.6941 12.3558 11.6533 12.2093 11.615C12.0583 11.8371 11.9767 12.1105 11.9926 12.379C12.0105 12.6853 12.2124 12.9632 12.1558 13.2762C12.1026 13.5692 11.8542 13.66 11.609 13.7325L11.5047 13.763C11.4244 13.7867 11.3662 13.8095 11.3517 13.9069C11.3267 14.0743 11.3574 14.2625 11.3638 14.4307C11.3715 14.6297 11.3816 14.8287 11.3863 15.0276C11.3887 15.1306 11.3926 15.2339 11.3924 15.3369C11.3922 15.41 11.3814 15.4599 11.3534 15.5071C11.375 15.5345 11.3944 15.5641 11.4116 15.5955C11.4171 15.6058 11.4035 15.6167 11.3953 15.6082C11.3735 15.5853 11.3503 15.5646 11.3259 15.5461C11.3135 15.5615 11.2992 15.5771 11.2824 15.5938L11.2811 15.592C11.2286 15.6448 11.1453 15.6499 11.0802 15.5938L11.0631 15.5788C11.0155 15.5366 10.9828 15.5015 10.9695 15.4318C10.9689 15.4282 10.9682 15.4247 10.9678 15.4211C10.8467 15.4169 10.7237 15.4458 10.6148 15.5067C10.4421 15.6031 10.3206 15.7406 10.2488 15.9104C10.2774 15.9442 10.3109 15.9745 10.35 15.9999C10.3555 16.0037 10.3506 16.012 10.3447 16.0091C10.3048 15.9901 10.2691 15.9667 10.2371 15.9393C10.2113 16.0062 10.1932 16.0779 10.1822 16.1539C10.1434 16.4221 10.2126 16.7499 10.4525 16.9027C10.5563 16.9689 10.675 17.0048 10.798 17.0052C10.858 17.0054 10.9098 16.9952 10.968 16.9807C11.0075 16.9709 11.0467 16.9566 11.0879 16.9566C11.1232 16.9566 11.1559 16.9655 11.1861 16.9834L11.1777 16.9841C11.1573 16.986 11.1612 16.9869 11.1896 16.9869C11.2778 16.9907 11.3283 17.0812 11.2877 17.1598L11.2824 17.172C11.2813 17.1744 11.2803 17.1765 11.2796 17.1781L11.2764 17.1989C11.276 17.2009 11.2757 17.203 11.2754 17.2051L11.2741 17.2093C11.2739 17.21 11.2737 17.2106 11.2734 17.2113L11.4057 17.4151C11.5678 17.6645 11.7336 17.9129 11.9223 18.1406C12.0546 18.3003 12.1948 18.457 12.343 18.602C12.4761 18.7324 12.6358 18.7952 12.7866 18.8977C12.8671 18.952 12.8907 19.0659 12.8175 19.1392C12.6027 19.3546 12.2986 19.1835 12.1225 19.0084C11.9558 18.8424 11.8118 18.6428 11.6877 18.4429C11.4674 18.0876 11.2921 17.7097 11.2154 17.2995C11.1834 17.3292 11.1426 17.3477 11.1014 17.3621C11.0187 17.3911 10.9276 17.4031 10.8403 17.4062C10.673 17.4118 10.5054 17.3708 10.3548 17.2982C9.74209 17.003 9.65213 16.1189 10.0267 15.5976C9.97623 15.4495 9.94801 15.2889 9.91736 15.152L9.90342 15.0907C9.74849 14.4069 9.6445 13.6869 9.91914 13.0169C9.95442 12.9304 9.99411 12.8462 10.0411 12.7655C10.0788 12.7007 10.1436 12.6316 10.1615 12.5579C10.2011 12.3959 9.95618 12.2257 9.88474 12.0971C9.80074 11.9463 9.78883 11.7683 9.90326 11.6303C9.91782 11.613 9.93367 11.5969 9.95089 11.5829C9.84241 11.3842 9.83734 11.1342 9.98021 10.9381C10.0741 10.8089 10.2175 10.7184 10.374 10.691C10.4697 10.6743 10.5848 10.6806 10.69 10.7104C11.2659 10.1701 11.9229 9.71873 12.6384 9.39077ZM10.4269 16.1512C10.5806 16.0142 10.7504 15.9424 10.9598 15.9605C11.1704 15.9787 11.424 16.0668 11.5476 16.2492C11.6453 16.3934 11.4462 16.6048 11.3029 16.4966C11.1724 16.3979 11.0853 16.2865 10.9232 16.2334C10.7777 16.186 10.5976 16.1554 10.4452 16.1826C10.4285 16.1855 10.4117 16.1646 10.4269 16.1512Z" fill="black"/>
</svg>
